<?xml version="1.0" encoding="UTF-8" standalone="no"?>
<svg
   xmlns:dc="http://purl.org/dc/elements/1.1/"
   xmlns:cc="http://creativecommons.org/ns#"
   xmlns:rdf="http://www.w3.org/1999/02/22-rdf-syntax-ns#"
   xmlns:svg="http://www.w3.org/2000/svg"
   xmlns="http://www.w3.org/2000/svg"
   viewBox="0 0 1122.52 1031.4467"
   height="1031.4467"
   width="1122.52"
   xml:space="preserve"
   id="svg2"
   version="1.1"><metadata
     id="metadata8"><rdf:RDF><cc:Work
         rdf:about=""><dc:format>image/svg+xml</dc:format><dc:type
           rdf:resource="http://purl.org/dc/dcmitype/StillImage" /></cc:Work></rdf:RDF></metadata><defs
     id="defs6"><clipPath
       id="clipPath146"
       clipPathUnits="userSpaceOnUse"><path
         id="path144"
         d="M 0,773.585 H 841.89 V 0 H 0 Z" /></clipPath><clipPath
       id="clipPath202"
       clipPathUnits="userSpaceOnUse"><path
         id="path200"
         d="M 0,773.585 H 841.89 V 0 H 0 Z" /></clipPath></defs><g
     transform="matrix(1.3333333,0,0,-1.3333333,0,1031.4467)"
     id="g10"><path
       id="path12"
       style="fill:#ffffff;fill-opacity:1;fill-rule:nonzero;stroke:none"
       d="M 0,0 H 841.89 V 773.585 H 0 Z" /><path
       id="path14"
       style="fill:#6f7464;fill-opacity:1;fill-rule:nonzero;stroke:none"
       d="M 720.016,471.618 H 467.106 V 344.644 h 252.91 z" /><path
       id="path16"
       style="fill:#6f7464;fill-opacity:1;fill-rule:nonzero;stroke:none"
       d="M 411.926,512.94 H 154.556 V 360.058 h 257.37 z" /><g
       transform="translate(589.9474,445.3213)"
       id="g18"><path
         id="path20"
         style="fill:#ece3bc;fill-opacity:1;fill-rule:nonzero;stroke:none"
         d="m 0,0 25.169,-20.098 25.17,-20.098 H 35.312 v 6.762 h -70.249 l 10e-4,-6.762 h -15.403 l 25.17,20.098 z" /></g><g
       transform="translate(589.9474,445.3213)"
       id="g22"><path
         id="path24"
         style="fill:none;stroke:#231f20;stroke-width:2;stroke-linecap:butt;stroke-linejoin:miter;stroke-miterlimit:10;stroke-dasharray:none;stroke-opacity:1"
         d="m 0,0 25.169,-20.098 25.17,-20.098 H 35.312 v 6.762 h -70.249 l 10e-4,-6.762 h -15.403 l 25.17,20.098 z" /></g><g
       transform="translate(294.7193,505.8028)"
       id="g26"><path
         id="path28"
         style="fill:#ece3bc;fill-opacity:1;fill-rule:nonzero;stroke:none"
         d="m 0,0 58.603,-50.339 58.603,-50.338 -21.705,18.031 H -95.335 l -21.871,-18.031 58.603,50.338 z" /></g><g
       transform="translate(294.7193,505.8028)"
       id="g30"><path
         id="path32"
         style="fill:none;stroke:#231f20;stroke-width:2;stroke-linecap:butt;stroke-linejoin:miter;stroke-miterlimit:10;stroke-dasharray:none;stroke-opacity:1"
         d="m 0,0 58.603,-50.339 58.603,-50.338 -21.705,18.031 H -95.335 l -21.871,-18.031 58.603,50.338 z" /></g><path
       id="path34"
       style="fill:#ffffff;fill-opacity:1;fill-rule:nonzero;stroke:#231f20;stroke-width:1;stroke-linecap:butt;stroke-linejoin:miter;stroke-miterlimit:10;stroke-dasharray:none;stroke-opacity:1"
       d="M 555.011,411.887 H 625.26 V 370.564 H 555.011 Z" /><g
       transform="translate(199.3848,423.1573)"
       id="g36"><path
         id="path38"
         style="fill:#ffffff;fill-opacity:1;fill-rule:nonzero;stroke:none"
         d="M 0,0 H 190.836 V -18.032 -52.593 H 0 v 34.561 z" /></g><g
       transform="translate(199.3848,423.1573)"
       id="g40"><path
         id="path42"
         style="fill:none;stroke:#231f20;stroke-width:1;stroke-linecap:butt;stroke-linejoin:miter;stroke-miterlimit:10;stroke-dasharray:none;stroke-opacity:1"
         d="M 0,0 H 190.836 V -18.032 -52.593 H 0 v 34.561 z" /></g><path
       id="path44"
       style="fill:#2c2827;fill-opacity:1;fill-rule:nonzero;stroke:none"
       d="m 600.09,373.57 h -20.286 v 34.185 h 20.286 z" /><path
       id="path46"
       style="fill:none;stroke:#231f20;stroke-width:1;stroke-linecap:butt;stroke-linejoin:miter;stroke-miterlimit:10;stroke-dasharray:none;stroke-opacity:1"
       d="M 702.27,344.644 H 508.429 V 270.639 H 702.27 Z" /><path
       id="path48"
       style="fill:#2c2827;fill-opacity:1;fill-rule:nonzero;stroke:none"
       d="m 268.757,417.898 h -58.603 v -35.312 h 58.603 z" /><path
       id="path50"
       style="fill:none;stroke:#ffffff;stroke-width:1;stroke-linecap:butt;stroke-linejoin:miter;stroke-miterlimit:10;stroke-dasharray:none;stroke-opacity:1"
       d="m 268.757,417.898 h -29.302 v -17.656 h 29.302 z" /><path
       id="path52"
       style="fill:none;stroke:#ffffff;stroke-width:1;stroke-linecap:butt;stroke-linejoin:miter;stroke-miterlimit:10;stroke-dasharray:none;stroke-opacity:1"
       d="m 268.757,400.242 h -29.302 v -17.656 h 29.302 z" /><path
       id="path54"
       style="fill:none;stroke:#ffffff;stroke-width:1;stroke-linecap:butt;stroke-linejoin:miter;stroke-miterlimit:10;stroke-dasharray:none;stroke-opacity:1"
       d="m 239.455,417.898 h -29.302 v -17.656 h 29.302 z" /><path
       id="path56"
       style="fill:none;stroke:#ffffff;stroke-width:1;stroke-linecap:butt;stroke-linejoin:miter;stroke-miterlimit:10;stroke-dasharray:none;stroke-opacity:1"
       d="m 239.455,400.242 h -29.302 v -17.656 h 29.302 z" /><path
       id="path58"
       style="fill:#2c2827;fill-opacity:1;fill-rule:nonzero;stroke:none"
       d="m 390.221,343.424 h -44.578 v -26.861 h 44.578 z" /><path
       id="path60"
       style="fill:none;stroke:#ffffff;stroke-width:1;stroke-linecap:butt;stroke-linejoin:miter;stroke-miterlimit:10;stroke-dasharray:none;stroke-opacity:1"
       d="m 390.221,343.424 h -22.289 v -13.431 h 22.289 z" /><path
       id="path62"
       style="fill:none;stroke:#ffffff;stroke-width:1;stroke-linecap:butt;stroke-linejoin:miter;stroke-miterlimit:10;stroke-dasharray:none;stroke-opacity:1"
       d="m 390.221,329.993 h -22.289 v -13.431 h 22.289 z" /><path
       id="path64"
       style="fill:none;stroke:#ffffff;stroke-width:1;stroke-linecap:butt;stroke-linejoin:miter;stroke-miterlimit:10;stroke-dasharray:none;stroke-opacity:1"
       d="m 367.932,343.424 h -22.289 v -13.431 h 22.289 z" /><path
       id="path66"
       style="fill:none;stroke:#ffffff;stroke-width:1;stroke-linecap:butt;stroke-linejoin:miter;stroke-miterlimit:10;stroke-dasharray:none;stroke-opacity:1"
       d="m 367.932,329.993 h -22.289 v -13.431 h 22.289 z" /><path
       id="path68"
       style="fill:#2c2827;fill-opacity:1;fill-rule:nonzero;stroke:none"
       d="m 235.091,345.02 h -49.875 v -30.053 h 49.875 z" /><path
       id="path70"
       style="fill:none;stroke:#ffffff;stroke-width:1;stroke-linecap:butt;stroke-linejoin:miter;stroke-miterlimit:10;stroke-dasharray:none;stroke-opacity:1"
       d="m 235.091,345.02 h -24.938 v -15.026 h 24.938 z" /><path
       id="path72"
       style="fill:none;stroke:#ffffff;stroke-width:1;stroke-linecap:butt;stroke-linejoin:miter;stroke-miterlimit:10;stroke-dasharray:none;stroke-opacity:1"
       d="m 235.091,329.993 h -24.938 v -15.026 h 24.938 z" /><path
       id="path74"
       style="fill:none;stroke:#ffffff;stroke-width:1;stroke-linecap:butt;stroke-linejoin:miter;stroke-miterlimit:10;stroke-dasharray:none;stroke-opacity:1"
       d="m 210.154,345.02 h -24.938 v -15.026 h 24.938 z" /><path
       id="path76"
       style="fill:none;stroke:#ffffff;stroke-width:1;stroke-linecap:butt;stroke-linejoin:miter;stroke-miterlimit:10;stroke-dasharray:none;stroke-opacity:1"
       d="m 210.154,329.993 h -24.938 v -15.026 h 24.938 z" /><path
       id="path78"
       style="fill:#2c2827;fill-opacity:1;fill-rule:nonzero;stroke:none"
       d="m 382.582,417.898 h -58.603 v -35.312 h 58.603 z" /><path
       id="path80"
       style="fill:none;stroke:#ffffff;stroke-width:1;stroke-linecap:butt;stroke-linejoin:miter;stroke-miterlimit:10;stroke-dasharray:none;stroke-opacity:1"
       d="M 382.582,417.898 H 353.28 v -17.656 h 29.302 z" /><path
       id="path82"
       style="fill:none;stroke:#ffffff;stroke-width:1;stroke-linecap:butt;stroke-linejoin:miter;stroke-miterlimit:10;stroke-dasharray:none;stroke-opacity:1"
       d="M 382.582,400.242 H 353.28 v -17.656 h 29.302 z" /><path
       id="path84"
       style="fill:none;stroke:#ffffff;stroke-width:1;stroke-linecap:butt;stroke-linejoin:miter;stroke-miterlimit:10;stroke-dasharray:none;stroke-opacity:1"
       d="m 353.281,417.898 h -29.302 v -17.656 h 29.302 z" /><path
       id="path86"
       style="fill:none;stroke:#ffffff;stroke-width:1;stroke-linecap:butt;stroke-linejoin:miter;stroke-miterlimit:10;stroke-dasharray:none;stroke-opacity:1"
       d="m 353.281,400.242 h -29.302 v -17.656 h 29.302 z" /><path
       id="path88"
       style="fill:none;stroke:#231f20;stroke-width:1;stroke-linecap:butt;stroke-linejoin:miter;stroke-miterlimit:10;stroke-dasharray:none;stroke-opacity:1"
       d="M 702.27,322.48 H 508.429 v -7.513 H 702.27 Z" /><path
       id="path90"
       style="fill:none;stroke:#231f20;stroke-width:1;stroke-linecap:butt;stroke-linejoin:miter;stroke-miterlimit:10;stroke-dasharray:none;stroke-opacity:1"
       d="M 702.27,314.967 H 508.429 v -7.513 H 702.27 Z" /><path
       id="path92"
       style="fill:none;stroke:#231f20;stroke-width:1;stroke-linecap:butt;stroke-linejoin:miter;stroke-miterlimit:10;stroke-dasharray:none;stroke-opacity:1"
       d="M 702.27,307.884 H 508.429 V 295.808 H 702.27 Z" /><path
       id="path94"
       style="fill:none;stroke:#231f20;stroke-width:1;stroke-linecap:butt;stroke-linejoin:miter;stroke-miterlimit:10;stroke-dasharray:none;stroke-opacity:1"
       d="M 702.27,295.808 H 508.429 V 283.732 H 702.27 Z" /><path
       id="path96"
       style="fill:none;stroke:#231f20;stroke-width:1;stroke-linecap:butt;stroke-linejoin:miter;stroke-miterlimit:10;stroke-dasharray:none;stroke-opacity:1"
       d="M 702.27,337.506 H 508.429 v -7.513 H 702.27 Z" /><path
       id="path98"
       style="fill:none;stroke:#231f20;stroke-width:1;stroke-linecap:butt;stroke-linejoin:miter;stroke-miterlimit:10;stroke-dasharray:none;stroke-opacity:1"
       d="M 702.27,329.993 H 508.429 V 322.48 H 702.27 Z" /><path
       id="path100"
       style="fill:none;stroke:#231f20;stroke-width:1;stroke-linecap:butt;stroke-linejoin:miter;stroke-miterlimit:10;stroke-dasharray:none;stroke-opacity:1"
       d="M 576.799,270.639 H 546.37 v 66.868 h 30.429 z" /><path
       id="path102"
       style="fill:none;stroke:#231f20;stroke-width:1;stroke-linecap:butt;stroke-linejoin:miter;stroke-miterlimit:10;stroke-dasharray:none;stroke-opacity:1"
       d="m 545.972,270.693 h -30.429 v 66.868 h 30.429 z" /><path
       id="path104"
       style="fill:none;stroke:#231f20;stroke-width:1;stroke-linecap:butt;stroke-linejoin:miter;stroke-miterlimit:10;stroke-dasharray:none;stroke-opacity:1"
       d="m 695.155,270.639 h -30.429 v 66.868 h 30.429 z" /><path
       id="path106"
       style="fill:none;stroke:#231f20;stroke-width:1;stroke-linecap:butt;stroke-linejoin:miter;stroke-miterlimit:10;stroke-dasharray:none;stroke-opacity:1"
       d="m 664.328,270.693 h -30.429 v 66.868 h 30.429 z" /><path
       id="path108"
       style="fill:#6f7464;fill-opacity:1;fill-rule:nonzero;stroke:none"
       d="m 411.926,455.464 h 80.672 v -110.82 h -80.672 z" /><g
       transform="translate(154.5559,360.058)"
       id="g110"><path
         id="path112"
         style="fill:#6f7464;fill-opacity:1;fill-rule:nonzero;stroke:none"
         d="M 0,0 -28.55,0.739 0,22.528 Z" /></g><path
       id="path114"
       style="fill:#6f7464;fill-opacity:1;fill-rule:nonzero;stroke:#6f7464;stroke-width:1;stroke-linecap:butt;stroke-linejoin:miter;stroke-miterlimit:10;stroke-dasharray:none;stroke-opacity:1"
       d="m 177.513,269.136 h -7.179 v 82.27 h 7.179 z" /><path
       id="path116"
       style="fill:#6f7464;fill-opacity:1;fill-rule:nonzero;stroke:#6f7464;stroke-width:1;stroke-linecap:butt;stroke-linejoin:miter;stroke-miterlimit:10;stroke-dasharray:none;stroke-opacity:1"
       d="m 487.215,269.136 h -7.179 v 75.696 h 7.179 z" /><path
       id="path118"
       style="fill:#ffffff;fill-opacity:1;fill-rule:nonzero;stroke:#6f7464;stroke-width:1;stroke-linecap:butt;stroke-linejoin:miter;stroke-miterlimit:10;stroke-dasharray:none;stroke-opacity:1"
       d="m 257.696,269.136 h -7.179 v 82.27 h 7.179 z" /><path
       id="path120"
       style="fill:none;stroke:#6f7464;stroke-width:1;stroke-linecap:butt;stroke-linejoin:miter;stroke-miterlimit:10;stroke-dasharray:none;stroke-opacity:1"
       d="M 413.66,351.406 H 126.006 v 9.391 H 413.66 Z" /><path
       id="path122"
       style="fill:#7aace1;fill-opacity:1;fill-rule:nonzero;stroke:none"
       d="M 742.09,277.025 H 720.802 V 517.073 H 742.09 Z" /><path
       id="path124"
       style="fill:#7aace1;fill-opacity:1;fill-rule:nonzero;stroke:none"
       d="M 121.198,277.238 H 99.911 v 240.048 h 21.287 z" /><g
       transform="translate(121.8733,270.6387)"
       id="g126"><path
         id="path128"
         style="fill:#c1b69c;fill-opacity:1;fill-rule:nonzero;stroke:none"
         d="m 0,0 h 598.143 l -22.047,-65.887 -67.826,-93.503 -188.582,-38.208 -208.117,18.783 -79.537,73.035 -5.288,39.392 z" /></g><g
       transform="translate(720.0165,539.6123)"
       id="g130"><path
         id="path132"
         style="fill:#ffffff;fill-opacity:1;fill-rule:nonzero;stroke:none"
         d="m 0,0 h -598.143 l 33.809,48.836 52.969,68.746 33.308,12.397 16.049,-3.757 h 323.229 l 50.408,-16.779 52.092,-44.454 32.056,-52.717 z" /></g><path
       id="path134"
       style="fill:none;stroke:#a11b23;stroke-width:8;stroke-linecap:butt;stroke-linejoin:miter;stroke-miterlimit:10;stroke-dasharray:none;stroke-opacity:1"
       d="M 720.016,270.639 H 121.873 v 268.974 h 598.143 z" /><g
       transform="translate(567.032,701.1467)"
       id="g136"><path
         id="path138"
         style="fill:#7aace1;fill-opacity:1;fill-rule:nonzero;stroke:none"
         d="M 0,0 -49.667,25.545 H -250.19 l -31.556,-16.702 -27.278,-9.594 v -34.561 h 335.32 v 21.037 z" /></g><g
       id="g140"><g
         clip-path="url(#clipPath146)"
         id="g142"><g
           transform="translate(420.9449,84.5336)"
           id="g148"><path
             id="path150"
             style="fill:#489ada;fill-opacity:1;fill-rule:nonzero;stroke:none"
             d="m 0,0 c -124.708,0 -232.367,72.996 -282.581,178.591 -4.795,10.084 -9.066,20.465 -12.779,31.109 -11.252,32.261 -17.368,66.93 -17.368,103.028 0,172.715 140.013,312.728 312.728,312.728 172.715,0 312.728,-140.013 312.728,-312.728 0,-48.007 -10.817,-93.487 -30.147,-134.137 -18.646,-39.209 -45.211,-73.924 -77.629,-102.076 -2.143,-1.861 -4.311,-3.693 -6.505,-5.496 -5.34,-4.389 0.037,-17.621 -5.59,-21.655 -7.333,-5.256 -25.768,-1.187 -33.555,-5.806 C 112.646,15.887 58.178,0 0,0 m 0,661.785 c -192.779,0 -349.057,-156.278 -349.057,-349.057 0,-192.779 156.278,-349.057 349.057,-349.057 192.779,0 349.057,156.278 349.057,349.057 0,192.779 -156.278,349.057 -349.057,349.057" /></g><g
           transform="translate(762.9592,209.0303)"
           id="g152"><path
             id="path154"
             style="fill:#d3c6c7;fill-opacity:1;fill-rule:nonzero;stroke:none"
             d="m 0,0 c -15.171,-0.999 -38.928,-2.563 -64.989,-4.278 l 6.93,58.373 C -79.66,18.783 -116.287,-9.204 -165.291,-28.55 c 22.457,-2.004 63.49,8.795 72.671,9.955 10.967,1.385 -38.648,-61.442 -35.24,-70.377 C -78.39,-61.348 -31.994,-32.812 0,0" /></g><g
           transform="translate(762.9592,209.0303)"
           id="g156"><path
             id="path158"
             style="fill:none;stroke:#a11b23;stroke-width:4;stroke-linecap:butt;stroke-linejoin:miter;stroke-miterlimit:10;stroke-dasharray:none;stroke-opacity:1"
             d="m 0,0 c -15.171,-0.999 -38.928,-2.563 -64.989,-4.278 l 6.93,58.373 C -79.66,18.783 -116.287,-9.204 -165.291,-28.55 c 22.457,-2.004 63.49,8.795 72.671,9.955 10.967,1.385 -38.648,-61.442 -35.24,-70.377 C -78.39,-61.348 -31.994,-32.812 0,0 Z" /></g><g
           transform="translate(666.0085,190.028)"
           id="g160"><path
             id="path162"
             style="fill:#a28083;fill-opacity:1;fill-rule:nonzero;stroke:none"
             d="M 0,0 C -24.808,-7.587 -59.949,-13.806 -78.889,-10.8 -75,-26.411 -69.756,-40.48 -56.6,-49.337 Z" /></g><g
           transform="translate(83.6295,208.5294)"
           id="g164"><path
             id="path166"
             style="fill:#d3c6c7;fill-opacity:1;fill-rule:nonzero;stroke:none"
             d="M 0,0 C 15.171,-0.999 38.928,-2.563 64.989,-4.278 L 54.471,54.095 c 28.174,-34.06 60.783,-61.859 110.82,-82.645 -22.457,-2.004 -63.49,8.795 -72.671,9.955 -10.967,1.385 38.648,-61.442 35.24,-70.377 C 78.39,-61.348 31.994,-32.812 0,0" /></g><g
           transform="translate(83.6295,208.5294)"
           id="g168"><path
             id="path170"
             style="fill:none;stroke:#a11b23;stroke-width:4;stroke-linecap:butt;stroke-linejoin:miter;stroke-miterlimit:10;stroke-dasharray:none;stroke-opacity:1"
             d="M 0,0 C 15.171,-0.999 38.928,-2.563 64.989,-4.278 L 54.471,54.095 c 28.174,-34.06 60.783,-61.859 110.82,-82.645 -22.457,-2.004 -63.49,8.795 -72.671,9.955 -10.967,1.385 38.648,-61.442 35.24,-70.377 C 78.39,-61.348 31.994,-32.812 0,0 Z" /></g><g
           transform="translate(179.4115,189.5272)"
           id="g172"><path
             id="path174"
             style="fill:#a28083;fill-opacity:1;fill-rule:nonzero;stroke:none"
             d="M 0,0 C 24.808,-7.587 59.949,-13.806 78.889,-10.8 75,-26.411 69.756,-40.48 56.6,-49.337 Z" /></g><g
           transform="translate(124.7534,130.6423)"
           id="g176"><path
             id="path178"
             style="fill:#ffffff;fill-opacity:1;fill-rule:nonzero;stroke:none"
             d="m 0,0 50.173,58.885 c 83.062,-60.388 144.92,-71.532 246.019,-80.423 107.519,2.144 162.115,19.034 250.723,80.924 L 596.049,0 C 514.65,-67.571 408.72,-98.173 296.192,-98.173 171.064,-92.342 70.105,-61.888 0,0" /></g><g
           transform="translate(124.7534,130.6423)"
           id="g180"><path
             id="path182"
             style="fill:none;stroke:#a11b23;stroke-width:4;stroke-linecap:butt;stroke-linejoin:miter;stroke-miterlimit:10;stroke-dasharray:none;stroke-opacity:1"
             d="m 0,0 50.173,58.885 c 83.062,-60.388 144.92,-71.532 246.019,-80.423 107.519,2.144 162.115,19.034 250.723,80.924 L 596.049,0 C 514.65,-67.571 408.72,-98.173 296.192,-98.173 171.064,-92.342 70.105,-61.888 0,0 Z" /></g><path
           id="path184"
           style="fill:#100f0d;fill-opacity:1;fill-rule:nonzero;stroke:none"
           d="m 342.136,567.161 h -13.899 v 13.899 h 13.899 z" /><path
           id="path186"
           style="fill:#100f0d;fill-opacity:1;fill-rule:nonzero;stroke:none"
           d="m 436.222,567.161 h -13.899 v 13.899 h 13.899 z" /><path
           id="path188"
           style="fill:#100f0d;fill-opacity:1;fill-rule:nonzero;stroke:none"
           d="m 532.642,567.161 h -13.899 v 13.899 h 13.899 z" /></g></g><text
       id="text194"
       style="font-variant:normal;font-weight:normal;font-stretch:normal;font-size:96.26300049px;font-family:Impact;-inkscape-font-specification:Impact;writing-mode:lr-tb;fill:#231f20;fill-opacity:1;fill-rule:nonzero;stroke:none"
       transform="matrix(0.97087354,0,0,-1,245.7187,565.7837)"><tspan
         id="tspan190"
         y="0"
         x="0 117.15207">MA</tspan><tspan
         id="tspan192"
         y="-1.155156"
         x="215.4366 312.37344">SS</tspan></text>
<g
       id="g196"><g
         clip-path="url(#clipPath202)"
         id="g198"><g
           transform="translate(186.4679,155.2005)"
           id="g204"><path
             id="path206"
             style="fill:#231f20;fill-opacity:1;fill-rule:nonzero;stroke:none"
             d="m 0,0 13.418,-7.681 -3.491,-6.097 -5.495,3.145 -3.307,-5.777 4.893,-2.801 -3.319,-5.798 -4.893,2.803 -7.326,-12.799 -7.923,4.536 z" /></g><g
           transform="translate(204.2065,129.0457)"
           id="g208"><path
             id="path210"
             style="fill:#231f20;fill-opacity:1;fill-rule:nonzero;stroke:none"
             d="M 0,0 C 0.688,1.303 1.052,2.162 1.09,2.575 1.128,2.988 0.918,3.317 0.457,3.559 -0.003,3.803 -0.399,3.796 -0.732,3.538 -1.064,3.28 -1.574,2.5 -2.263,1.196 l -6.065,-11.489 c -0.635,-1.2 -0.972,-2.024 -1.01,-2.469 -0.04,-0.446 0.165,-0.786 0.612,-1.023 0.46,-0.242 0.851,-0.237 1.174,0.018 0.322,0.256 0.774,0.932 1.355,2.032 z M 6.734,-6.008 3.443,-12.24 c -1.208,-2.289 -2.209,-3.905 -3.002,-4.853 -0.795,-0.945 -1.813,-1.682 -3.057,-2.212 -1.244,-0.527 -2.573,-0.7 -3.988,-0.515 -1.416,0.182 -2.891,0.678 -4.425,1.488 -1.713,0.906 -3.064,1.86 -4.054,2.865 -0.99,1.004 -1.613,2.061 -1.87,3.17 -0.257,1.107 -0.241,2.276 0.049,3.506 0.289,1.229 1.004,2.922 2.145,5.084 l 3.443,6.519 c 1.249,2.365 2.48,4.077 3.693,5.136 1.213,1.059 2.698,1.641 4.452,1.744 1.755,0.105 3.669,-0.39 5.74,-1.484 C 4.307,7.291 5.663,6.243 6.636,5.068 7.609,3.892 8.215,2.71 8.453,1.52 8.692,0.331 8.703,-0.769 8.487,-1.785 8.271,-2.799 7.686,-4.205 6.734,-6.008" /></g><g
           transform="translate(225.6618,127.142)"
           id="g212"><path
             id="path214"
             style="fill:#231f20;fill-opacity:1;fill-rule:nonzero;stroke:none"
             d="m 0,0 -1.964,-3.253 c 2.327,1.883 4.612,2.37 6.854,1.459 l -4.42,-9.11 c -1.444,0.7 -2.599,1.02 -3.464,0.956 -0.866,-0.061 -1.546,-0.402 -2.039,-1.022 -0.494,-0.621 -1.35,-2.185 -2.568,-4.696 l -4.959,-10.224 -7.882,3.823 12.559,25.893 z" /></g><g
           transform="translate(261.793,111.8481)"
           id="g216"><path
             id="path218"
             style="fill:#231f20;fill-opacity:1;fill-rule:nonzero;stroke:none"
             d="m 0,0 -3.219,-8.334 c 0.237,-0.107 0.443,-0.194 0.619,-0.263 0.782,-0.301 1.399,-0.319 1.851,-0.052 0.452,0.267 0.912,1.009 1.381,2.223 l 1.039,2.689 C 2.103,-2.618 2.21,-1.822 1.989,-1.349 1.768,-0.877 1.106,-0.427 0,0 M -6.352,8.893 2.226,5.581 C 4.545,4.684 6.258,3.814 7.365,2.967 8.472,2.123 9.205,1.235 9.567,0.304 9.928,-0.625 10.032,-1.623 9.877,-2.687 9.721,-3.75 9.248,-5.307 8.456,-7.357 l -1.102,-2.851 c -0.807,-2.091 -1.612,-3.531 -2.413,-4.323 -0.802,-0.79 -1.878,-1.219 -3.229,-1.286 -1.351,-0.068 -2.957,0.258 -4.818,0.977 l -2.286,0.884 -5.095,-13.189 -8.516,3.289 z" /></g><g
           transform="translate(281.6505,104.329)"
           id="g220"><path
             id="path222"
             style="fill:#231f20;fill-opacity:1;fill-rule:nonzero;stroke:none"
             d="m 0,0 -1.55,-3.47 c 2.079,2.155 4.286,2.92 6.623,2.29 l -3.268,-9.585 c -1.519,0.518 -2.704,0.694 -3.555,0.525 -0.852,-0.167 -1.485,-0.589 -1.898,-1.265 -0.414,-0.678 -1.071,-2.335 -1.972,-4.976 l -3.667,-10.756 -8.292,2.828 9.287,27.237 z" /></g><g
           transform="translate(296.5877,91.3429)"
           id="g224"><path
             id="path226"
             style="fill:#231f20;fill-opacity:1;fill-rule:nonzero;stroke:none"
             d="M 0,0 C 0.416,1.415 0.601,2.328 0.557,2.741 0.512,3.152 0.241,3.433 -0.259,3.579 -0.758,3.725 -1.145,3.641 -1.419,3.321 -1.694,3.004 -2.039,2.137 -2.455,0.721 L -6.118,-11.74 c -0.383,-1.305 -0.55,-2.177 -0.499,-2.623 0.05,-0.445 0.317,-0.737 0.803,-0.881 0.499,-0.146 0.882,-0.061 1.148,0.251 0.265,0.313 0.573,1.066 0.924,2.26 z m 7.794,-4.552 -1.987,-6.761 c -0.73,-2.483 -1.39,-4.266 -1.98,-5.35 -0.59,-1.085 -1.442,-2.011 -2.556,-2.776 -1.114,-0.765 -2.383,-1.199 -3.806,-1.299 -1.424,-0.103 -2.968,0.091 -4.633,0.582 -1.858,0.546 -3.372,1.212 -4.542,2.002 -1.169,0.787 -1.991,1.698 -2.462,2.735 -0.472,1.034 -0.688,2.184 -0.649,3.444 0.04,1.262 0.404,3.066 1.093,5.41 l 2.079,7.074 c 0.754,2.566 1.621,4.488 2.599,5.768 0.979,1.279 2.318,2.144 4.018,2.593 C -3.333,9.32 -1.36,9.215 0.887,8.555 2.773,8.001 4.31,7.243 5.497,6.284 6.685,5.325 7.513,4.287 7.984,3.168 8.453,2.05 8.683,0.975 8.672,-0.062 8.662,-1.098 8.369,-2.595 7.794,-4.552" /></g><g
           transform="translate(322.2283,99.314)"
           id="g228"><path
             id="path230"
             style="fill:#231f20;fill-opacity:1;fill-rule:nonzero;stroke:none"
             d="m 0,0 -1.079,-4.312 c -1.753,0.438 -2.807,0.616 -3.163,0.534 -0.356,-0.082 -0.629,-0.502 -0.818,-1.26 l -0.222,-0.883 3.577,-0.895 -1.105,-4.417 -2.02,0.504 -5.71,-22.824 -8.499,2.125 5.711,22.827 -1.747,0.436 1.105,4.417 1.746,-0.436 c 0.46,1.837 0.83,3.047 1.111,3.634 0.28,0.584 0.73,1.057 1.349,1.417 0.618,0.359 1.408,0.553 2.369,0.58 0.961,0.03 2.388,-0.194 4.281,-0.669 z" /></g><g
           transform="translate(330.855,80.5414)"
           id="g232"><path
             id="path234"
             style="fill:#231f20;fill-opacity:1;fill-rule:nonzero;stroke:none"
             d="M 0,0 0.425,2.061 C 0.725,3.52 0.841,4.476 0.773,4.933 0.705,5.389 0.43,5.668 -0.051,5.768 -0.646,5.889 -1.051,5.787 -1.267,5.453 -1.483,5.122 -1.755,4.164 -2.081,2.577 L -2.506,0.516 Z m 7.656,-6.359 -11.107,2.289 -1.257,-6.097 c -0.262,-1.274 -0.34,-2.114 -0.232,-2.52 0.108,-0.406 0.424,-0.662 0.948,-0.772 0.651,-0.132 1.137,0.021 1.458,0.464 0.32,0.445 0.625,1.367 0.913,2.769 l 0.766,3.716 8.135,-1.676 -0.429,-2.081 c -0.359,-1.742 -0.745,-3.059 -1.157,-3.947 -0.412,-0.89 -1.131,-1.783 -2.157,-2.678 -1.026,-0.895 -2.213,-1.481 -3.562,-1.757 -1.348,-0.274 -2.957,-0.219 -4.826,0.164 -1.812,0.374 -3.358,0.966 -4.637,1.776 -1.28,0.81 -2.212,1.751 -2.795,2.824 -0.584,1.072 -0.911,2.186 -0.982,3.346 -0.071,1.157 0.109,2.785 0.541,4.88 l 1.694,8.22 c 0.508,2.465 1.241,4.339 2.2,5.625 0.959,1.285 2.274,2.152 3.945,2.597 1.671,0.445 3.491,0.464 5.459,0.06 C 2.981,10.345 4.873,9.48 6.249,8.245 7.625,7.008 8.473,5.572 8.793,3.933 9.112,2.296 8.99,0.11 8.426,-2.623 Z" /></g><g
           transform="translate(360.0674,76.6083)"
           id="g236"><path
             id="path238"
             style="fill:#231f20;fill-opacity:1;fill-rule:nonzero;stroke:none"
             d="m 0,0 -7.674,1.171 0.235,1.543 c 0.201,1.315 0.253,2.159 0.156,2.532 C -7.38,5.62 -7.728,5.85 -8.328,5.942 -8.814,6.017 -9.203,5.912 -9.495,5.627 -9.787,5.344 -9.982,4.878 -10.08,4.237 -10.213,3.365 -10.25,2.716 -10.191,2.29 c 0.059,-0.427 0.356,-0.93 0.889,-1.507 0.533,-0.58 1.672,-1.477 3.417,-2.694 2.327,-1.611 3.802,-3.022 4.422,-4.227 0.62,-1.208 0.773,-2.847 0.456,-4.917 -0.353,-2.317 -0.92,-4.017 -1.7,-5.104 -0.78,-1.089 -1.922,-1.842 -3.427,-2.264 -1.504,-0.42 -3.251,-0.48 -5.237,-0.176 -2.201,0.335 -4.031,0.965 -5.492,1.89 -1.46,0.924 -2.394,2.018 -2.8,3.278 -0.408,1.262 -0.43,3.079 -0.068,5.451 l 0.209,1.372 7.674,-1.171 -0.274,-1.801 c -0.233,-1.53 -0.289,-2.536 -0.166,-3.023 0.124,-0.488 0.471,-0.773 1.042,-0.862 0.615,-0.094 1.067,-0.005 1.358,0.264 0.289,0.272 0.509,0.9 0.66,1.886 0.207,1.358 0.179,2.232 -0.083,2.623 -0.276,0.392 -1.8,1.664 -4.573,3.812 -2.326,1.817 -3.679,3.351 -4.058,4.602 -0.38,1.248 -0.448,2.675 -0.203,4.275 0.346,2.271 0.902,3.901 1.666,4.889 0.766,0.987 1.911,1.664 3.436,2.032 1.526,0.367 3.24,0.404 5.14,0.114 C -6.017,10.745 -4.449,10.261 -3.2,9.58 -1.951,8.9 -1.032,8.113 -0.445,7.22 0.143,6.325 0.46,5.531 0.508,4.837 0.555,4.141 0.47,3.079 0.252,1.65 Z" /></g><g
           transform="translate(380.959,74.4261)"
           id="g240"><path
             id="path242"
             style="fill:#231f20;fill-opacity:1;fill-rule:nonzero;stroke:none"
             d="m 0,0 -7.725,0.778 0.157,1.555 c 0.133,1.322 0.142,2.168 0.027,2.536 -0.116,0.367 -0.476,0.582 -1.08,0.641 -0.489,0.051 -0.872,-0.075 -1.149,-0.374 -0.278,-0.299 -0.448,-0.772 -0.513,-1.42 -0.089,-0.876 -0.093,-1.527 -0.012,-1.949 0.081,-0.423 0.402,-0.909 0.965,-1.459 0.562,-0.55 1.745,-1.388 3.55,-2.515 2.407,-1.491 3.951,-2.824 4.632,-3.997 0.681,-1.174 0.917,-2.803 0.707,-4.887 -0.235,-2.331 -0.714,-4.059 -1.438,-5.184 -0.723,-1.126 -1.826,-1.938 -3.307,-2.436 -1.481,-0.498 -3.222,-0.646 -5.221,-0.445 -2.215,0.224 -4.075,0.76 -5.581,1.609 -1.506,0.849 -2.494,1.892 -2.965,3.132 -0.471,1.239 -0.586,3.052 -0.346,5.44 l 0.139,1.381 7.724,-0.779 -0.182,-1.812 c -0.155,-1.539 -0.158,-2.548 -0.01,-3.027 0.147,-0.482 0.509,-0.749 1.084,-0.808 0.618,-0.062 1.066,0.05 1.341,0.333 0.276,0.285 0.464,0.925 0.564,1.918 0.138,1.365 0.065,2.237 -0.216,2.613 -0.297,0.379 -1.884,1.571 -4.762,3.575 -2.416,1.696 -3.845,3.159 -4.288,4.387 -0.443,1.231 -0.583,2.65 -0.421,4.26 0.23,2.287 0.702,3.944 1.415,4.969 0.714,1.025 1.823,1.76 3.328,2.205 1.505,0.443 3.214,0.568 5.127,0.377 1.899,-0.192 3.489,-0.596 4.771,-1.21 1.282,-0.616 2.24,-1.356 2.872,-2.219 C -0.181,6.325 0.177,5.549 0.26,4.858 0.343,4.166 0.312,3.1 0.167,1.662 Z" /></g><g
           transform="translate(393.7607,89.2429)"
           id="g244"><path
             id="path246"
             style="fill:#231f20;fill-opacity:1;fill-rule:nonzero;stroke:none"
             d="m 0,0 -0.276,-4.568 -9.004,0.544 0.275,4.567 z m -0.381,-6.321 -1.733,-28.725 -9.005,0.544 1.733,28.725 z" /></g><g
           transform="translate(406.8603,74.5745)"
           id="g248"><path
             id="path250"
             style="fill:#231f20;fill-opacity:1;fill-rule:nonzero;stroke:none"
             d="M 0,0 C 0.027,1.475 -0.036,2.404 -0.188,2.789 -0.341,3.175 -0.676,3.374 -1.197,3.383 -1.717,3.392 -2.068,3.207 -2.248,2.828 -2.428,2.447 -2.532,1.52 -2.558,0.046 L -2.793,-12.94 c -0.024,-1.361 0.046,-2.247 0.212,-2.662 0.166,-0.415 0.502,-0.628 1.008,-0.637 0.52,-0.009 0.867,0.174 1.04,0.546 0.173,0.372 0.271,1.18 0.293,2.424 z M 8.72,-2.326 8.593,-9.373 c -0.047,-2.588 -0.211,-4.483 -0.493,-5.686 -0.282,-1.2 -0.859,-2.319 -1.731,-3.351 -0.872,-1.034 -1.981,-1.787 -3.326,-2.26 -1.346,-0.474 -2.887,-0.696 -4.621,-0.666 -1.937,0.036 -3.574,0.278 -4.91,0.73 -1.337,0.45 -2.37,1.112 -3.099,1.986 -0.729,0.872 -1.241,1.922 -1.537,3.15 -0.296,1.228 -0.422,3.061 -0.378,5.506 l 0.134,7.371 c 0.048,2.675 0.375,4.757 0.98,6.25 0.605,1.493 1.668,2.682 3.188,3.565 1.519,0.884 3.45,1.304 5.792,1.263 C 0.558,8.448 2.24,8.124 3.639,7.515 5.037,6.903 6.111,6.122 6.861,5.168 7.609,4.214 8.116,3.237 8.38,2.235 8.644,1.233 8.757,-0.288 8.72,-2.326" /></g><g
           transform="translate(426.8239,82.703)"
           id="g252"><path
             id="path254"
             style="fill:#231f20;fill-opacity:1;fill-rule:nonzero;stroke:none"
             d="m 0,0 -0.054,-2.655 c 0.597,1.08 1.344,1.902 2.242,2.463 0.898,0.562 1.946,0.865 3.145,0.911 1.502,0.055 2.744,-0.253 3.723,-0.927 0.98,-0.671 1.627,-1.541 1.941,-2.607 0.315,-1.066 0.518,-2.855 0.612,-5.371 L 12.355,-28.339 3.6,-28.663 2.863,-8.747 C 2.789,-6.768 2.68,-5.565 2.534,-5.136 2.388,-4.707 2.018,-4.504 1.426,-4.527 0.805,-4.549 0.424,-4.812 0.284,-5.316 0.143,-5.821 0.113,-7.156 0.193,-9.325 l 0.721,-19.437 -8.756,-0.324 -1.065,28.755 z" /></g><g
           transform="translate(452.4223,69.2216)"
           id="g256"><path
             id="path258"
             style="fill:#231f20;fill-opacity:1;fill-rule:nonzero;stroke:none"
             d="m 0,0 c -1.303,-1.15 -2.035,-2.079 -2.195,-2.792 -0.161,-0.71 -0.182,-1.714 -0.064,-3.011 0.136,-1.481 0.32,-2.431 0.553,-2.844 0.234,-0.415 0.639,-0.596 1.215,-0.543 0.547,0.05 0.888,0.251 1.023,0.605 0.134,0.354 0.136,1.249 0.005,2.689 z m -3.122,3.68 -8.185,-0.747 -0.175,1.922 c -0.202,2.217 -0.102,3.949 0.299,5.198 0.402,1.248 1.331,2.406 2.788,3.467 1.456,1.062 3.415,1.705 5.878,1.929 2.951,0.269 5.223,-0.05 6.815,-0.959 C 5.89,13.584 6.907,12.383 7.348,10.893 7.788,9.4 8.224,6.286 8.656,1.55 l 1.31,-14.383 -8.487,-0.772 -0.233,2.552 c -0.439,-1.073 -1.057,-1.901 -1.852,-2.49 -0.796,-0.589 -1.777,-0.936 -2.943,-1.043 -1.527,-0.139 -2.965,0.162 -4.318,0.901 -1.352,0.742 -2.16,2.559 -2.423,5.454 l -0.214,2.353 c -0.196,2.146 0.009,3.636 0.615,4.476 0.606,0.84 2.201,1.9 4.784,3.18 2.763,1.383 4.227,2.278 4.394,2.687 0.166,0.406 0.195,1.207 0.086,2.401 -0.137,1.498 -0.337,2.463 -0.601,2.897 -0.265,0.434 -0.657,0.625 -1.175,0.58 -0.59,-0.055 -0.94,-0.279 -1.049,-0.674 -0.109,-0.395 -0.091,-1.39 0.055,-2.988 z" /></g><g
           transform="translate(470.392,92.8815)"
           id="g260"><path
             id="path262"
             style="fill:#231f20;fill-opacity:1;fill-rule:nonzero;stroke:none"
             d="m 0,0 4.566,-34.811 -8.944,-1.173 -4.567,34.811 z" /></g><g
           transform="translate(495.6183,97.1888)"
           id="g264"><path
             id="path266"
             style="fill:#231f20;fill-opacity:1;fill-rule:nonzero;stroke:none"
             d="m 0,0 14.87,3.26 1.504,-6.864 -5.952,-1.304 1.425,-6.503 5.571,1.221 1.43,-6.526 -5.571,-1.219 1.653,-7.542 6.545,1.434 1.504,-6.862 -15.463,-3.39 z" /></g><g
           transform="translate(531.9464,99.4555)"
           id="g268"><path
             id="path270"
             style="fill:#231f20;fill-opacity:1;fill-rule:nonzero;stroke:none"
             d="m 0,0 0.106,-14.182 7.898,-13.468 -8.237,-2.157 c -1.78,3.458 -3.23,6.455 -4.346,8.994 0.302,-3.456 0.516,-6.778 0.644,-9.964 l -7.086,-1.856 -0.158,15.492 -7.134,12.345 7.085,1.856 c 2.633,-5.392 4.092,-8.462 4.379,-9.211 -0.426,4.967 -0.652,8.359 -0.677,10.181 z" /></g><g
           transform="translate(554.7798,95.034)"
           id="g272"><path
             id="path274"
             style="fill:#231f20;fill-opacity:1;fill-rule:nonzero;stroke:none"
             d="M 0,0 -7.903,-2.408 -8.87,0.765 c -0.337,1.107 -0.657,1.83 -0.956,2.168 -0.3,0.34 -0.692,0.436 -1.176,0.288 -0.484,-0.146 -0.756,-0.42 -0.816,-0.815 -0.061,-0.397 0.092,-1.196 0.458,-2.399 l 3.958,-12.986 c 0.3,-0.982 0.649,-1.68 1.047,-2.096 0.4,-0.413 0.84,-0.548 1.324,-0.399 0.567,0.171 0.873,0.545 0.918,1.118 0.044,0.571 -0.151,1.571 -0.585,2.995 l -0.998,3.278 7.466,2.276 c 0.656,-2.203 1.08,-3.876 1.271,-5.02 0.189,-1.143 0.069,-2.412 -0.36,-3.805 -0.429,-1.392 -1.184,-2.575 -2.263,-3.547 -1.079,-0.97 -2.545,-1.74 -4.398,-2.303 -2.365,-0.722 -4.362,-0.888 -5.992,-0.5 -1.63,0.388 -2.954,1.223 -3.972,2.506 -1.018,1.285 -1.936,3.267 -2.754,5.951 l -2.384,7.82 c -0.712,2.336 -1.015,4.171 -0.907,5.504 0.107,1.333 0.786,2.7 2.037,4.102 1.251,1.401 2.974,2.435 5.174,3.107 2.184,0.666 4.193,0.771 6.024,0.317 C -4.923,7.871 -3.537,7.017 -2.595,5.761 -1.654,4.506 -0.789,2.586 0,0" /></g><g
           transform="translate(567.4064,100.0992)"
           id="g276"><path
             id="path278"
             style="fill:#231f20;fill-opacity:1;fill-rule:nonzero;stroke:none"
             d="M 0,0 -0.695,1.986 C -1.187,3.39 -1.58,4.271 -1.873,4.629 -2.167,4.985 -2.545,5.083 -3.01,4.919 -3.583,4.721 -3.876,4.422 -3.891,4.027 -3.906,3.629 -3.645,2.668 -3.11,1.139 l 0.695,-1.984 z M 9.837,-1.518 -0.866,-5.266 1.19,-11.139 c 0.431,-1.228 0.796,-1.989 1.097,-2.283 0.303,-0.292 0.706,-0.349 1.21,-0.174 0.628,0.222 0.964,0.603 1.011,1.149 0.047,0.543 -0.165,1.492 -0.639,2.842 l -1.254,3.581 7.838,2.746 0.703,-2.006 c 0.588,-1.678 0.933,-3.004 1.038,-3.979 0.103,-0.975 -0.055,-2.109 -0.474,-3.406 -0.42,-1.294 -1.136,-2.408 -2.151,-3.337 -1.015,-0.931 -2.422,-1.71 -4.224,-2.342 -1.746,-0.612 -3.376,-0.897 -4.891,-0.861 -1.513,0.035 -2.796,0.363 -3.848,0.984 -1.051,0.619 -1.906,1.409 -2.563,2.365 -0.657,0.956 -1.338,2.445 -2.046,4.465 l -2.773,7.921 c -0.831,2.374 -1.167,4.357 -1.006,5.953 0.161,1.598 0.843,3.015 2.049,4.257 1.204,1.24 2.754,2.194 4.651,2.858 2.319,0.813 4.387,1.043 6.203,0.689 C 2.937,9.932 4.402,9.135 5.518,7.896 6.635,6.654 7.654,4.718 8.576,2.084 Z" /></g><g
           transform="translate(580.6595,122.6816)"
           id="g280"><path
             id="path282"
             style="fill:#231f20;fill-opacity:1;fill-rule:nonzero;stroke:none"
             d="M 0,0 12.59,-32.772 4.169,-36.007 -8.422,-3.235 Z" /></g><g
           transform="translate(591.4725,127.0575)"
           id="g284"><path
             id="path286"
             style="fill:#231f20;fill-opacity:1;fill-rule:nonzero;stroke:none"
             d="M 0,0 13.241,-32.517 4.886,-35.918 -8.356,-3.403 Z" /></g><g
           transform="translate(610.5933,117.274)"
           id="g288"><path
             id="path290"
             style="fill:#231f20;fill-opacity:1;fill-rule:nonzero;stroke:none"
             d="M 0,0 -0.846,1.927 C -1.445,3.289 -1.905,4.136 -2.226,4.469 -2.545,4.803 -2.931,4.871 -3.381,4.673 -3.936,4.428 -4.206,4.109 -4.19,3.714 -4.174,3.317 -3.841,2.379 -3.189,0.897 l 0.847,-1.926 z m 9.925,-0.753 -10.383,-4.563 2.504,-5.7 c 0.524,-1.189 0.948,-1.92 1.271,-2.189 0.323,-0.267 0.729,-0.295 1.22,-0.08 0.608,0.267 0.914,0.676 0.92,1.221 0.003,0.548 -0.282,1.477 -0.857,2.787 l -1.527,3.474 7.603,3.342 0.855,-1.947 c 0.716,-1.627 1.162,-2.922 1.341,-3.887 0.179,-0.963 0.11,-2.107 -0.209,-3.431 -0.318,-1.324 -0.947,-2.488 -1.887,-3.495 -0.94,-1.004 -2.283,-1.892 -4.031,-2.659 -1.693,-0.744 -3.297,-1.157 -4.809,-1.237 -1.513,-0.08 -2.817,0.148 -3.913,0.684 -1.097,0.537 -2.009,1.256 -2.738,2.16 -0.728,0.904 -1.524,2.335 -2.384,4.294 l -3.377,7.683 c -1.013,2.303 -1.5,4.255 -1.462,5.86 0.037,1.602 0.608,3.07 1.713,4.401 1.105,1.33 2.577,2.399 4.417,3.207 2.251,0.99 4.293,1.378 6.131,1.168 C 2.161,10.128 3.684,9.448 4.893,8.297 6.1,7.147 7.267,5.293 8.39,2.739 Z" /></g><g
           transform="translate(624.6545,134.9875)"
           id="g292"><path
             id="path294"
             style="fill:#231f20;fill-opacity:1;fill-rule:nonzero;stroke:none"
             d="m 0,0 1.012,-2.454 c 0.116,1.228 0.472,2.278 1.071,3.152 0.598,0.875 1.438,1.571 2.52,2.091 1.355,0.651 2.616,0.866 3.782,0.64 1.168,-0.226 2.108,-0.765 2.822,-1.617 0.714,-0.851 1.616,-2.41 2.706,-4.677 L 22.649,-21.042 14.752,-24.838 6.12,-6.875 C 5.262,-5.09 4.681,-4.029 4.375,-3.696 4.07,-3.36 3.65,-3.321 3.116,-3.579 2.555,-3.849 2.312,-4.241 2.384,-4.759 2.457,-5.28 2.963,-6.515 3.902,-8.469 L 12.329,-26.002 4.432,-29.796 -8.033,-3.86 Z" /></g><g
           transform="translate(659.3259,140.3335)"
           id="g296"><path
             id="path298"
             style="fill:#231f20;fill-opacity:1;fill-rule:nonzero;stroke:none"
             d="m 0,0 -7.332,-3.81 -1.529,2.945 c -0.533,1.027 -0.978,1.68 -1.334,1.958 -0.358,0.279 -0.761,0.302 -1.209,0.069 -0.45,-0.233 -0.668,-0.55 -0.655,-0.952 0.012,-0.399 0.309,-1.157 0.889,-2.274 l 6.257,-12.047 c 0.473,-0.911 0.943,-1.534 1.41,-1.87 0.468,-0.335 0.926,-0.386 1.376,-0.153 0.526,0.272 0.759,0.694 0.698,1.267 -0.062,0.571 -0.435,1.518 -1.121,2.84 l -1.579,3.04 6.928,3.598 c 1.046,-2.048 1.767,-3.616 2.162,-4.705 0.395,-1.091 0.508,-2.36 0.341,-3.807 -0.169,-1.448 -0.696,-2.746 -1.58,-3.899 -0.883,-1.151 -2.186,-2.173 -3.905,-3.066 -2.193,-1.141 -4.127,-1.668 -5.8,-1.584 -1.673,0.084 -3.127,0.664 -4.362,1.742 -1.236,1.077 -2.5,2.86 -3.793,5.348 l -3.767,7.257 c -1.127,2.168 -1.758,3.917 -1.895,5.245 -0.137,1.331 0.282,2.799 1.256,4.403 0.974,1.607 2.481,2.94 4.522,4 2.025,1.052 3.982,1.522 5.865,1.408 C -6.274,6.841 -4.755,6.252 -3.601,5.191 -2.447,4.129 -1.246,2.399 0,0" /></g><g
           transform="translate(670.4619,147.2363)"
           id="g300"><path
             id="path302"
             style="fill:#231f20;fill-opacity:1;fill-rule:nonzero;stroke:none"
             d="M 0,0 -1.021,1.84 C -1.744,3.141 -2.28,3.942 -2.63,4.243 -2.98,4.547 -3.369,4.577 -3.799,4.339 -4.33,4.045 -4.569,3.7 -4.516,3.308 -4.464,2.915 -4.044,2.011 -3.258,0.596 l 1.021,-1.838 z M 9.952,0.169 0.038,-5.337 3.06,-10.779 c 0.631,-1.137 1.121,-1.824 1.468,-2.061 0.345,-0.237 0.753,-0.226 1.221,0.032 0.581,0.324 0.849,0.758 0.802,1.303 -0.045,0.544 -0.416,1.443 -1.111,2.694 l -1.843,3.317 7.26,4.033 1.032,-1.858 c 0.864,-1.554 1.429,-2.803 1.697,-3.746 0.268,-0.943 0.304,-2.088 0.11,-3.438 -0.194,-1.346 -0.712,-2.565 -1.555,-3.652 -0.843,-1.089 -2.098,-2.095 -3.766,-3.022 -1.618,-0.899 -3.176,-1.459 -4.674,-1.678 -1.498,-0.221 -2.819,-0.114 -3.96,0.317 -1.141,0.434 -2.117,1.066 -2.926,1.897 -0.81,0.834 -1.734,2.185 -2.773,4.054 l -4.074,7.337 c -1.222,2.198 -1.888,4.1 -2,5.7 -0.112,1.6 0.321,3.113 1.298,4.54 0.977,1.427 2.344,2.627 4.101,3.604 2.148,1.194 4.147,1.769 5.996,1.73 C 1.212,10.286 2.792,9.749 4.102,8.715 5.412,7.681 6.744,5.944 8.099,3.506 Z" /></g><path
           id="path304"
           style="fill:#4855ae;fill-opacity:1;fill-rule:nonzero;stroke:none"
           d="m 405.999,506.304 h 35.437 v -5.134 h -35.437 z" /><g
           transform="translate(372.4169,453.4774)"
           id="g306"><path
             id="path308"
             style="fill:#4855ae;fill-opacity:1;fill-rule:nonzero;stroke:none"
             d="M 0,0 C 6.584,-8.435 9.901,-7.489 15.134,4.203 9.863,2.739 5.11,1.419 0,0 m -18.913,-15.416 c -4.387,3.196 -7.587,1.06 -10.078,-2.601 -3.006,-4.417 -5.677,-9.067 -8.493,-13.617 -1.77,-1.256 -3.243,-2.842 -3.693,-4.981 -0.753,-3.581 -1.25,-7.215 -3.318,-10.357 -2.166,-2.533 -6.984,-3.189 -5.691,-8.17 -0.589,-2.224 -1.189,-4.446 -1.766,-6.674 -1.445,-5.579 -3.072,-11.151 -0.878,-16.923 0.083,-1.164 -0.058,-2.401 0.282,-3.483 5.201,-16.548 10.465,-33.075 15.714,-49.607 0.145,-0.338 0.29,-0.676 0.435,-1.013 0.171,-0.818 0.342,-1.636 0.513,-2.454 0.204,-0.399 0.409,-0.797 0.613,-1.195 0.082,-0.368 0.164,-0.735 0.246,-1.102 -0.229,-1.459 0.432,-3.578 1.236,-3.495 1.334,0.137 37.614,97.107 39.261,103.129 1.497,4.455 1.453,6.627 -2.709,9.02 -7.376,4.241 -14.465,8.988 -21.674,13.523 m 65.618,-63.315 c 0.001,-7.848 0.002,-15.696 0.004,-23.543 0,-23.562 10e-4,-47.124 0.002,-70.687 -0.002,-7.847 -0.004,-15.694 -0.007,-23.542 -0.07,-6.76 -0.04,-13.523 -0.257,-20.278 -0.093,-2.873 0.837,-3.944 3.627,-3.143 2.317,0.035 4.634,0.07 6.951,0.104 2.206,8.099 0.855,16.299 0.687,24.466 0.008,7.079 0.016,14.158 0.024,21.236 0.548,8.629 0.636,17.257 -0.022,25.884 -0.004,7.076 -0.007,14.153 -0.011,21.23 0.688,8.26 0.56,16.522 0.058,24.785 -0.014,7.446 -0.028,14.891 -0.042,22.337 0.611,8.63 0.635,17.259 -0.023,25.888 0.032,7.857 0.065,15.714 0.098,23.571 0.474,7.847 0.555,15.693 -0.051,23.538 0.007,7.445 0.014,14.89 0.02,22.334 -0.072,0.999 -0.385,1.71 -0.771,2.201 -2.13,3.731 -10.276,3.607 -10.445,-2.867 -0.61,-23.306 0.083,-46.628 0.151,-69.942 0.002,-7.857 0.005,-15.715 0.007,-23.572 M 5.484,72.664 C 3.198,71.721 5.098,69.957 5.687,68.866 7.085,66.277 7.323,64.196 4.361,62.672 3.927,62.493 3.676,62.398 3.296,62.44 2.525,62.57 2.226,62.234 2.357,61.473 2.248,60.302 2.138,59.13 2.028,57.959 0.87,54.603 -1.274,51.678 -1.401,47.845 -1.506,44.7 -3.799,43.682 -6.804,44.447 c -2.245,0.571 -4.479,1.357 -6.761,1.568 -5.616,0.518 -12.481,-4.958 -12.02,-10.346 0.356,-4.151 2.214,-8.455 7.859,-8.274 6.502,0.332 18.933,0.443 20.994,0.332 1.13,-3.287 3.008,-2.911 4.99,-2.631 7.057,0.994 14.122,2.01 20.768,4.825 0.431,0.283 0.706,0.572 0.855,0.896 1.158,2.659 2.5,5.257 2.693,8.237 1.28,3.755 3.772,4.639 7.742,4.639 3.727,0 17.828,0 23.088,0.001 3.314,10e-4 4.707,-1.14 5.891,-4.106 3.446,-8.636 108.6,-262.543 109.063,-264.36 -3.947,0 -7.682,0 -11.416,0 -0.775,1.57 -99.594,242.723 -103.795,250.714 V -8.066 c 0.004,-7.843 0.007,-15.685 0.011,-23.527 0,-7.862 0,-15.725 0,-23.587 0,-7.843 -0.001,-15.686 -0.002,-23.529 0.002,-7.862 0.003,-15.723 0.004,-23.585 0.001,-7.843 0.001,-15.686 0.001,-23.529 l 10e-4,-23.589 c -10e-4,-7.842 -10e-4,-15.684 -0.002,-23.527 -10e-4,-7.863 -0.003,-15.726 -0.004,-23.588 -0.004,-7.839 -0.007,-15.677 -0.011,-23.515 0.218,-3.706 -1.12,-5.524 -5.165,-4.938 -2.207,0.319 -4.52,-0.113 -6.785,-0.206 -3.226,0.129 -6.453,0.258 -9.679,0.386 -0.096,3.326 -0.276,6.651 -0.276,9.976 0.005,72.679 0.037,145.357 0.012,218.035 0,1.853 0.807,3.903 -1.105,6.069 C 35.02,1.163 27.61,-5.251 25.689,-15.121 23.086,-20.395 -22.852,-148.2 -27.106,-159.409 c -0.677,-1.784 -0.377,-3.443 0.14,-5.106 3.332,-10.72 6.701,-21.428 10.058,-32.14 2.206,-7.435 4.412,-14.87 6.617,-22.305 0.208,-0.442 0.415,-0.884 0.623,-1.326 l -0.029,0.031 c 2.278,-13.236 7.411,-24.395 20.706,-29.988 5.052,-2.126 10.406,-2.803 15.617,-4.159 0.974,-1.536 1.947,-3.072 2.921,-4.608 -0.138,-0.77 -0.275,-1.54 -0.412,-2.309 -0.821,-0.097 -1.642,-0.194 -2.464,-0.29 -7.773,-0.001 -15.547,-0.001 -23.321,-0.001 -3.595,-0.099 -6.762,1.31 -9.959,2.734 -1.554,0.692 -4.394,1.967 -4.812,0.764 -1.702,-4.907 -5.723,-2.624 -8.671,-3.513 -0.773,0.071 -1.546,0.193 -2.32,0.206 -10.727,0.189 -10.727,0.185 -11.831,10.721 0.112,0.806 -0.215,1.111 -1.002,0.892 -2.724,0.003 -5.449,0.006 -8.173,0.008 -1.855,0.182 -3.468,0.637 -3.451,3.008 0.026,3.573 -1.331,6.823 -2.235,10.198 -0.984,3.679 -1.626,6.114 -2.441,7.775 0,1.632 0,3.072 0,4.377 0,0 -6.252,0 -10.588,0 1.094,3.282 3.061,9.31 3.061,9.31 0,0 2.56,6.957 -0.027,10.431 -0.228,0.384 -2.208,5.937 -3.311,8.201 -0.11,0.411 -0.219,0.823 -0.329,1.234 -0.189,0.363 -0.379,0.727 -0.568,1.09 -0.535,1.293 -0.618,2.135 -1.229,3.545 -4.556,14.852 -9.834,29.441 -15.724,43.806 -0.384,0.938 -0.591,2.654 -2.206,1.876 -0.506,-0.244 -0.748,-1.746 -0.592,-2.574 3.054,-16.271 3.638,-32.847 6.027,-49.198 0.119,-0.432 0.237,-0.865 0.355,-1.298 0.426,-2.116 0.412,-2.45 0.418,-3.46 0.581,-6.182 1.163,-12.363 1.744,-18.545 0.232,-1.192 1.106,-9.146 1.312,-11.931 0.17,-0.782 1.516,-13.404 2.282,-13.478 0.116,-0.011 7.894,16.611 7.894,16.611 h 9.621 c -4.575,-7.547 -9.838,-16.18 -14.435,-23.765 3.852,-2.042 7.724,-2.336 11.566,-2.799 2.58,-0.311 4.743,-1.724 4.554,-4.4 -0.22,-3.119 -11.621,-1.773 -15.108,-1.849 -7.778,-0.003 -15.556,-0.005 -23.334,-0.008 -3.662,0.083 -7.324,0.239 -10.986,0.224 -2.517,-0.011 -4.497,0.912 -4.13,3.585 0.764,5.584 -1.059,8.923 -6.833,9.599 -0.156,1.531 -0.312,3.061 -0.468,4.592 -0.147,7.917 -8.958,110.023 -10.459,117.812 0.499,7.524 -1.157,14.895 -1.571,22.354 -0.537,8.393 -1.51,16.713 -4.125,24.754 1.449,8.286 2.898,16.571 4.346,24.857 2.871,7.075 7.317,13.232 11.286,19.667 0.246,0.408 0.492,0.815 0.738,1.223 1.818,2.318 2.697,3.822 3.505,6.285 2.608,7.942 3.017,12.451 4.781,18.511 2.201,3.668 3.403,7.436 5.828,10.875 2.349,3.333 3.793,7.559 4.503,12.807 l 3.604,10.493 c 0.223,0.403 0.445,0.807 0.667,1.21 0.256,0.769 0.512,1.538 0.767,2.307 2.428,2.873 8.406,12.018 9.271,13.419 4.088,4.258 9.203,7.425 12.786,12.219 4.377,1.783 8.218,4.756 12.888,5.888 2.702,0.175 5.433,0.165 8.099,0.578 2.652,0.411 5.017,1.381 3.674,4.989 -2.371,6.369 -1.876,12.995 -1.658,19.592 0.489,2.291 0.978,4.582 1.467,6.873 4.98,9.605 13.646,11.51 23.308,11.334 7.568,-0.988 14.764,-3.423 21.993,-5.729 C 6.465,94.838 1.893,90.1 4.515,86.179 4.544,83.831 4.461,81.474 4.626,79.136" /></g><g
           transform="translate(299.215,221.5243)"
           id="g310"><path
             id="path312"
             style="fill:#4855ae;fill-opacity:1;fill-rule:nonzero;stroke:none"
             d="M 0,0 C 0.17,-0.782 0.341,-1.565 0.511,-2.347 0.341,-1.565 0.17,-0.782 0,0" /></g><g
           transform="translate(362.1264,234.5177)"
           id="g314"><path
             id="path316"
             style="fill:#4855ae;fill-opacity:1;fill-rule:nonzero;stroke:none"
             d="M 0,0 C 0.207,-0.442 0.415,-0.884 0.622,-1.326 0.415,-0.884 0.207,-0.442 0,0" /></g><g
           transform="translate(335.5827,321.6481)"
           id="g318"><path
             id="path320"
             style="fill:#4855ae;fill-opacity:1;fill-rule:nonzero;stroke:none"
             d="M 0,0 C 0.145,-0.338 0.29,-0.675 0.435,-1.013 0.29,-0.675 0.145,-0.338 0,0" /></g><g
           transform="translate(282.2744,479.4741)"
           id="g322"><path
             id="path324"
             style="fill:#4855ae;fill-opacity:1;fill-rule:nonzero;stroke:none"
             d="M 0,0 C 0.222,0.404 0.445,0.807 0.667,1.211 0.444,0.807 0.222,0.404 0,0" /></g><g
           transform="translate(309.6779,258.2134)"
           id="g326"><path
             id="path328"
             style="fill:#4855ae;fill-opacity:1;fill-rule:nonzero;stroke:none"
             d="M 0,0 C -0.19,0.363 -0.379,0.727 -0.568,1.09 -0.379,0.727 -0.189,0.363 0,0" /></g><g
           transform="translate(336.5309,318.1813)"
           id="g330"><path
             id="path332"
             style="fill:#4855ae;fill-opacity:1;fill-rule:nonzero;stroke:none"
             d="M 0,0 C 0.204,-0.398 0.409,-0.797 0.613,-1.195 0.409,-0.797 0.204,-0.398 0,0" /></g><g
           transform="translate(423.6956,194.5551)"
           id="g334"><path
             id="path336"
             style="fill:#4855ae;fill-opacity:1;fill-rule:nonzero;stroke:none"
             d="m 0,0 -9.463,30.102 h 7.867 12.941 z" /></g><g
           transform="translate(542.3018,224.6531)"
           id="g338"><path
             id="path340"
             style="fill:#4855ae;fill-opacity:1;fill-rule:nonzero;stroke:none"
             d="m 0,0 h 10.622 l 12.179,-29.207 c 0.534,-2.211 -1.202,-3.71 -3.247,-1.916 z" /></g><g
           transform="translate(439.6618,534.3085)"
           id="g342"><path
             id="path344"
             style="fill:#4855ae;fill-opacity:1;fill-rule:nonzero;stroke:none"
             d="m 0,0 c -1.055,3.884 -3.297,7.202 -6.268,9.446 v 6.507 c -3.181,9.543 -14.316,10.417 -18.654,0 V 8.971 C -27.602,6.745 -29.627,3.624 -30.611,0 h -26.63 v -4.526 h -6.589 v -3.102 h 6.589 v -3.954 h 27.12 c 1.091,-2.975 2.905,-5.535 5.199,-7.441 v -5.453 h 18.654 v 4.977 c 2.573,1.943 4.595,4.693 5.778,7.917 H 22.147 L 27.425,0 Z" /></g><path
           id="path346"
           style="fill:#4855ae;fill-opacity:1;fill-rule:nonzero;stroke:none"
           d="m 435.578,275.335 h -5.639 v 208.21 h 5.639 z" /><path
           id="path348"
           style="fill:#4855ae;fill-opacity:1;fill-rule:nonzero;stroke:none"
           d="m 435.575,227.907 h -5.636 v 38.071 h 5.636 z" /><path
           id="path350"
           style="fill:#4855ae;fill-opacity:1;fill-rule:nonzero;stroke:none"
           d="m 419.084,227.907 h -5.424 v 38.071 h 5.424 z" /><path
           id="path352"
           style="fill:#4855ae;fill-opacity:1;fill-rule:nonzero;stroke:none"
           d="m 419.084,275.335 h -5.424 v 195.281 h 5.424 z" /><path
           id="path354"
           style="fill:#4855ae;fill-opacity:1;fill-rule:nonzero;stroke:none"
           d="m 418.857,233.448 h 11.082 v -5.541 h -11.082 z" /></g></g></g></svg>