<?xml version="1.0" standalone="no"?>
<!DOCTYPE svg PUBLIC "-//W3C//DTD SVG 20010904//EN"
 "http://www.w3.org/TR/2001/REC-SVG-20010904/DTD/svg10.dtd">
<svg version="1.0" xmlns="http://www.w3.org/2000/svg"
 width="212.000000pt" height="205.000000pt" viewBox="0 0 212.000000 205.000000"
 preserveAspectRatio="xMidYMid meet">

<g transform="translate(0.000000,205.000000) scale(0.100000,-0.100000)"
fill="#000000" stroke="none">
<path d="M1495 1518 c-105 -113 -134 -138 -150 -133 -11 3 -40 9 -64 12 -35 5
-43 3 -39 -8 3 -9 22 -15 51 -17 60 -4 60 -17 1 -26 -74 -10 -131 -7 -142 7
-14 16 -5 30 37 55 27 17 31 22 19 27 -18 7 -47 -6 -72 -31 -12 -12 -13 -20
-5 -35 18 -34 1 -130 -29 -161 -25 -27 -25 -28 -9 -60 16 -29 17 -30 12 -7 -3
19 2 32 20 49 14 13 23 30 21 37 -3 7 -1 15 4 18 6 4 10 -7 10 -24 0 -29 2
-31 40 -31 22 0 49 -5 60 -12 15 -10 26 -10 53 0 18 7 70 12 115 12 72 0 87
-3 122 -26 22 -15 40 -31 40 -36 0 -4 -30 -61 -68 -126 -37 -64 -74 -130 -82
-147 -28 -58 -39 -65 -102 -65 l-58 0 0 -35 c0 -31 -3 -35 -25 -35 -23 0 -24
3 -27 78 l-3 77 -32 3 c-32 3 -33 3 -34 -40 -1 -41 -1 -89 0 -170 l1 -38 70 0
c79 0 82 -4 47 -65 -40 -70 -42 -84 -7 -50 17 16 28 35 25 43 -3 7 26 66 63
130 38 64 90 155 116 202 26 47 51 92 56 100 6 8 15 26 21 40 5 13 13 27 17
30 4 3 15 20 24 38 15 29 15 33 2 45 -9 6 -24 20 -35 30 -10 9 -23 17 -28 17
-5 0 -11 4 -13 8 -1 4 -24 24 -50 43 -26 20 -63 50 -83 68 l-36 31 107 118
c60 64 112 119 116 120 11 5 10 -16 -2 -23 -5 -3 -32 -45 -60 -92 l-51 -86 38
-40 c150 -157 240 -247 248 -247 5 0 -27 37 -72 83 -72 72 -82 87 -85 122 -3
36 -6 40 -33 43 -72 7 -92 38 -55 85 11 14 20 30 20 35 0 6 6 17 13 24 23 26
102 168 95 172 -2 1 -61 -60 -133 -136z"/>
<path d="M524 1367 c-37 -22 -94 -72 -94 -82 0 -5 10 -29 22 -52 19 -35 20
-45 10 -68 -13 -27 -25 -28 -94 -9 -13 4 -20 -7 -32 -47 -25 -83 -22 -98 23
-116 33 -13 40 -21 45 -52 6 -37 1 -45 -53 -81 l-23 -15 26 -59 c38 -86 41
-88 83 -71 44 18 43 19 71 -5 22 -18 22 -21 8 -49 -23 -44 -20 -64 15 -84 18
-10 33 -16 34 -15 1 2 25 56 54 122 l52 119 -34 28 c-35 29 -67 100 -67 143 1
32 26 95 46 117 18 20 19 20 70 -35 28 -31 58 -56 67 -56 9 0 37 18 62 40 25
22 53 40 60 40 25 0 46 -94 34 -149 -11 -51 -60 -114 -98 -126 -27 -8 -27 -14
9 -145 17 -61 30 -113 30 -115 0 -8 44 -5 59 4 9 6 13 29 13 70 0 54 3 62 22
67 12 3 42 -4 66 -15 l45 -20 20 22 c33 35 65 93 65 115 0 14 -13 29 -40 44
-27 16 -40 30 -40 45 0 28 8 33 70 40 l51 6 -3 81 -3 81 -61 3 c-53 2 -63 6
-72 26 -9 20 -5 31 24 75 39 58 40 54 -24 123 -37 40 -44 40 -102 1 -19 -13
-41 -23 -50 -23 -8 0 -44 -28 -79 -61 -57 -54 -66 -59 -77 -45 -6 9 -20 28
-30 42 -46 63 -56 74 -71 74 -8 0 -32 18 -52 40 -32 35 -38 38 -57 27z"/>
<path d="M1278 1072 l-48 -3 0 -80 0 -80 88 3 87 3 3 76 3 77 -43 3 c-24 2
-64 3 -90 1z"/>
<path d="M1628 933 c-62 -70 -147 -165 -188 -211 -41 -47 -89 -101 -107 -121
-17 -20 -30 -37 -28 -39 2 -2 18 12 35 32 l32 35 111 3 112 3 3 78 3 77 -30 0
c-57 0 -59 -4 167 253 8 9 13 17 9 17 -3 0 -56 -57 -119 -127z"/>
</g>
</svg>
